<svg version="1" xmlns="http://www.w3.org/2000/svg" width="933.333" height="933.333" viewBox="0 0 700.000000 700.000000"><path d="M0 23.3v23.3h513l.1-2.3c0-1.3.1-11.6.2-23.1V.5L256.7.2 0 0v23.3zM186.9 94.9c-.1 2.1-.1 41.1 0 43.3.1 1.7 13 1.8 256.6 1.8H700V93.3H443.5c-233 0-256.5.2-256.6 1.6zM.2 209.9l.3 23.5h255.3c140.5.1 255.9-.2 256.4-.6 1.2-.7 1.8-43.2.6-45.1-.5-.8-73.1-1.1-256.7-1.1L0 186.5l.2 23.4zM186.9 280.4c-.3.4-.3 33.6 0 43.7l.1 2.6h513V280H443.7c-141 0-256.6.2-256.8.4zM.5 373.9c-.3.2-.5 10.7-.5 23.3V420h256.5c170.3 0 256.5-.3 256.6-1 0-.6.1-10.2.1-21.5s-.1-21.3-.1-22.3c-.1-1.8-9-1.9-256.1-1.8-140.8 0-256.3.2-256.5.5zM188.5 466.8c-1.9.3-2 1-1.8 22.5.1 12.2.2 22.6.2 23.2.1.7 85.8.9 255.3.8 140.4 0 255.9-.1 256.6-.2 1-.1 1.2-5.1 1-23.3l-.3-23.1-254.5-.1c-140-.1-255.4 0-256.5.2zM0 583.3v23.3h256.5c231.2 0 256.5-.1 256.6-1.5.1-2.1.1-41.1 0-43.4-.1-1.6-13-1.7-256.6-1.7H0v23.3zM186.9 655.4c0 1.2-.1 11.5-.1 23.1l-.1 21 256.6.3 256.7.2v-46.7l-256.5.1H187l-.1 2z"/></svg>